<svg width="50" height="50" viewBox="0 0 50 50" fill="none" xmlns="http://www.w3.org/2000/svg">
<path d="M35 22.9167H15.0521L14.4792 27.0833H35.5208L35 22.9167ZM8.33334 41.6667L10.8854 22.9167H6.25C5.55556 22.9167 5.00834 22.6389 4.60834 22.0833C4.20972 21.5278 4.09722 20.9201 4.27084 20.2604L7.23959 9.84374C7.37847 9.39236 7.62153 9.02777 7.96875 8.74999C8.31597 8.47222 8.73264 8.33333 9.21875 8.33333H40.7813C41.2674 8.33333 41.684 8.47222 42.0312 8.74999C42.3785 9.02777 42.6215 9.39236 42.7604 9.84374L45.7292 20.2604C45.9028 20.9201 45.7903 21.5278 45.3917 22.0833C44.9917 22.6389 44.4444 22.9167 43.75 22.9167H39.1667L41.6667 41.6667H37.5L36.0938 31.25H13.9063L12.5 41.6667H8.33334Z" fill="#AAAAAA"/>
</svg>
