<svg width="50" height="50" viewBox="0 0 50 50" fill="none" xmlns="http://www.w3.org/2000/svg">
<path d="M39.5833 18.75V14.5833C39.5833 11.1458 36.7708 8.33333 33.3333 8.33333H16.6667C13.2292 8.33333 10.4167 11.1458 10.4167 14.5833V18.75C6.97917 18.75 4.16667 21.5625 4.16667 25V35.4167C4.16667 38.8542 6.97917 41.6667 10.4167 41.6667V45.8333H14.5833V41.6667H35.4167V45.8333H39.5833V41.6667C43.0208 41.6667 45.8333 38.8542 45.8333 35.4167V25C45.8333 21.5625 43.0208 18.75 39.5833 18.75ZM14.5833 14.5833C14.5833 13.4375 15.5208 12.5 16.6667 12.5H33.3333C34.4792 12.5 35.4167 13.4375 35.4167 14.5833V20.375C34.1458 21.5208 33.3333 23.1667 33.3333 25V29.1667H16.6667V25C16.6667 23.1667 15.8542 21.5208 14.5833 20.375V14.5833ZM41.6667 35.4167C41.6667 36.5625 40.7292 37.5 39.5833 37.5H10.4167C9.27084 37.5 8.33334 36.5625 8.33334 35.4167V25C8.33334 23.8542 9.27084 22.9167 10.4167 22.9167C11.5625 22.9167 12.5 23.8542 12.5 25V33.3333H37.5V25C37.5 23.8542 38.4375 22.9167 39.5833 22.9167C40.7292 22.9167 41.6667 23.8542 41.6667 25V35.4167Z" fill="#AAAAAA"/>
</svg>
