<svg width="40" height="45" viewBox="0 0 40 45" fill="none" xmlns="http://www.w3.org/2000/svg">
<path d="M34.2857 0H5.71429C2.57143 0 0 2.025 0 4.5V38.25C0 39.4435 0.602039 40.5881 1.67368 41.432C2.74531 42.2759 4.19876 42.75 5.71429 42.75V45H11.4286V42.75H28.5714V45H34.2857V42.75C37.4571 42.75 40 40.7475 40 38.25V4.5C40 3.30653 39.398 2.16193 38.3263 1.31802C37.2547 0.474106 35.8012 0 34.2857 0ZM14.2857 36H8.57143V29.25H14.2857V36ZM31.4286 36H25.7143V29.25H31.4286V36ZM34.2857 22.5H5.71429V15.75H34.2857V22.5ZM34.2857 11.25H5.71429V4.5H34.2857V11.25Z" fill="#AAAAAA"/>
</svg>
